<mxfile host="app.diagrams.net" modified="2024-03-22T08:46:45.129Z" agent="Mozilla/5.0 (Windows NT 10.0; Win64; x64) AppleWebKit/537.36 (KHTML, like Gecko) Chrome/122.0.0.0 Safari/537.36 Edg/122.0.0.0" etag="e3tt3KR7r2A58NmgvsOT" version="24.0.7" type="onedrive">
  <diagram name="Page-1" id="gu26d38_dUAbRlyVn1d3">
    <mxGraphModel grid="1" page="1" gridSize="10" guides="1" tooltips="1" connect="1" arrows="1" fold="1" pageScale="1" pageWidth="850" pageHeight="1100" math="0" shadow="0">
      <root>
        <mxCell id="0" />
        <mxCell id="1" parent="0" />
        <mxCell id="HabPrTJprjeO0nrYq_Kb-1" value="Insurance Agent" style="shape=umlActor;verticalLabelPosition=bottom;verticalAlign=top;html=1;outlineConnect=0;" vertex="1" parent="1">
          <mxGeometry x="60" y="150" width="30" height="60" as="geometry" />
        </mxCell>
        <mxCell id="HabPrTJprjeO0nrYq_Kb-2" value="" style="endArrow=none;html=1;rounded=0;entryX=0;entryY=0.5;entryDx=0;entryDy=0;exitX=0.5;exitY=0.5;exitDx=0;exitDy=0;exitPerimeter=0;" edge="1" parent="1" source="HabPrTJprjeO0nrYq_Kb-1" target="HabPrTJprjeO0nrYq_Kb-4">
          <mxGeometry width="50" height="50" relative="1" as="geometry">
            <mxPoint x="170" y="190" as="sourcePoint" />
            <mxPoint x="250" y="190" as="targetPoint" />
          </mxGeometry>
        </mxCell>
        <mxCell id="HabPrTJprjeO0nrYq_Kb-3" value="Car Insurance Management System" style="swimlane;whiteSpace=wrap;html=1;" vertex="1" parent="1">
          <mxGeometry x="150" y="20" width="530" height="750" as="geometry" />
        </mxCell>
        <mxCell id="HabPrTJprjeO0nrYq_Kb-11" value="" style="endArrow=classic;html=1;rounded=0;dashed=1;exitX=1;exitY=0.5;exitDx=0;exitDy=0;entryX=0;entryY=0.5;entryDx=0;entryDy=0;" edge="1" parent="HabPrTJprjeO0nrYq_Kb-3" source="HabPrTJprjeO0nrYq_Kb-4" target="HabPrTJprjeO0nrYq_Kb-9">
          <mxGeometry relative="1" as="geometry">
            <mxPoint x="110" y="110" as="sourcePoint" />
            <mxPoint x="210" y="110" as="targetPoint" />
          </mxGeometry>
        </mxCell>
        <mxCell id="HabPrTJprjeO0nrYq_Kb-12" value="&amp;lt;&amp;lt;include&amp;gt;&amp;gt;" style="edgeLabel;resizable=0;html=1;;align=center;verticalAlign=middle;" connectable="0" vertex="1" parent="HabPrTJprjeO0nrYq_Kb-11">
          <mxGeometry relative="1" as="geometry" />
        </mxCell>
        <mxCell id="HabPrTJprjeO0nrYq_Kb-18" value="" style="endArrow=classic;html=1;rounded=0;dashed=1;exitX=0.5;exitY=0;exitDx=0;exitDy=0;entryX=0.913;entryY=0.85;entryDx=0;entryDy=0;entryPerimeter=0;" edge="1" parent="HabPrTJprjeO0nrYq_Kb-3" source="HabPrTJprjeO0nrYq_Kb-16" target="HabPrTJprjeO0nrYq_Kb-9">
          <mxGeometry relative="1" as="geometry">
            <mxPoint x="110" y="100" as="sourcePoint" />
            <mxPoint x="230" y="100" as="targetPoint" />
          </mxGeometry>
        </mxCell>
        <mxCell id="HabPrTJprjeO0nrYq_Kb-19" value="&amp;lt;&amp;lt;extend&amp;gt;&amp;gt;" style="edgeLabel;resizable=0;html=1;;align=center;verticalAlign=middle;" connectable="0" vertex="1" parent="HabPrTJprjeO0nrYq_Kb-18">
          <mxGeometry relative="1" as="geometry" />
        </mxCell>
        <mxCell id="wxVBCRWslOwFN35KKLDh-20" value="" style="group" connectable="0" vertex="1" parent="HabPrTJprjeO0nrYq_Kb-3">
          <mxGeometry x="360" y="140" width="120" height="80" as="geometry" />
        </mxCell>
        <mxCell id="HabPrTJprjeO0nrYq_Kb-16" value="" style="ellipse;whiteSpace=wrap;html=1;" vertex="1" parent="wxVBCRWslOwFN35KKLDh-20">
          <mxGeometry width="120" height="80" as="geometry" />
        </mxCell>
        <mxCell id="HabPrTJprjeO0nrYq_Kb-17" value="Choose a policy" style="text;html=1;align=center;verticalAlign=middle;whiteSpace=wrap;rounded=0;" vertex="1" parent="wxVBCRWslOwFN35KKLDh-20">
          <mxGeometry x="30" y="25" width="60" height="30" as="geometry" />
        </mxCell>
        <mxCell id="wxVBCRWslOwFN35KKLDh-22" value="" style="group" connectable="0" vertex="1" parent="HabPrTJprjeO0nrYq_Kb-3">
          <mxGeometry x="220" y="50" width="120" height="80" as="geometry" />
        </mxCell>
        <mxCell id="HabPrTJprjeO0nrYq_Kb-9" value="" style="ellipse;whiteSpace=wrap;html=1;" vertex="1" parent="wxVBCRWslOwFN35KKLDh-22">
          <mxGeometry width="120" height="80" as="geometry" />
        </mxCell>
        <mxCell id="HabPrTJprjeO0nrYq_Kb-10" value="View available policies" style="text;html=1;align=center;verticalAlign=middle;whiteSpace=wrap;rounded=0;" vertex="1" parent="wxVBCRWslOwFN35KKLDh-22">
          <mxGeometry x="30" y="25" width="60" height="30" as="geometry" />
        </mxCell>
        <mxCell id="wxVBCRWslOwFN35KKLDh-23" value="" style="group" connectable="0" vertex="1" parent="HabPrTJprjeO0nrYq_Kb-3">
          <mxGeometry x="20" y="50" width="80" height="80" as="geometry" />
        </mxCell>
        <mxCell id="HabPrTJprjeO0nrYq_Kb-4" value="" style="ellipse;whiteSpace=wrap;html=1;aspect=fixed;" vertex="1" parent="wxVBCRWslOwFN35KKLDh-23">
          <mxGeometry width="80" height="80" as="geometry" />
        </mxCell>
        <mxCell id="HabPrTJprjeO0nrYq_Kb-6" value="Create Insurance Policy" style="text;html=1;align=center;verticalAlign=middle;whiteSpace=wrap;rounded=0;" vertex="1" parent="wxVBCRWslOwFN35KKLDh-23">
          <mxGeometry x="10" y="25" width="60" height="30" as="geometry" />
        </mxCell>
        <mxCell id="wxVBCRWslOwFN35KKLDh-21" value="" style="group" connectable="0" vertex="1" parent="HabPrTJprjeO0nrYq_Kb-3">
          <mxGeometry x="270" y="260" width="120" height="80" as="geometry" />
        </mxCell>
        <mxCell id="wxVBCRWslOwFN35KKLDh-8" value="" style="ellipse;whiteSpace=wrap;html=1;" vertex="1" parent="wxVBCRWslOwFN35KKLDh-21">
          <mxGeometry width="120" height="80" as="geometry" />
        </mxCell>
        <mxCell id="wxVBCRWslOwFN35KKLDh-9" value="File Claim" style="text;html=1;align=center;verticalAlign=middle;whiteSpace=wrap;rounded=0;" vertex="1" parent="wxVBCRWslOwFN35KKLDh-21">
          <mxGeometry x="30" y="25" width="60" height="30" as="geometry" />
        </mxCell>
        <mxCell id="wxVBCRWslOwFN35KKLDh-18" value="" style="group" connectable="0" vertex="1" parent="HabPrTJprjeO0nrYq_Kb-3">
          <mxGeometry x="200" y="390" width="120" height="80" as="geometry" />
        </mxCell>
        <mxCell id="wxVBCRWslOwFN35KKLDh-6" value="" style="ellipse;whiteSpace=wrap;html=1;" vertex="1" parent="wxVBCRWslOwFN35KKLDh-18">
          <mxGeometry width="120" height="80" as="geometry" />
        </mxCell>
        <mxCell id="wxVBCRWslOwFN35KKLDh-11" value="Report accident" style="text;html=1;align=center;verticalAlign=middle;whiteSpace=wrap;rounded=0;" vertex="1" parent="wxVBCRWslOwFN35KKLDh-18">
          <mxGeometry x="30" y="25" width="60" height="30" as="geometry" />
        </mxCell>
        <mxCell id="wxVBCRWslOwFN35KKLDh-29" value="" style="endArrow=classic;html=1;rounded=0;dashed=1;exitX=1;exitY=0.5;exitDx=0;exitDy=0;entryX=0.5;entryY=0;entryDx=0;entryDy=0;" edge="1" parent="HabPrTJprjeO0nrYq_Kb-3" source="wxVBCRWslOwFN35KKLDh-7" target="wxVBCRWslOwFN35KKLDh-8">
          <mxGeometry relative="1" as="geometry">
            <mxPoint x="100" y="190" as="sourcePoint" />
            <mxPoint x="270" y="310" as="targetPoint" />
          </mxGeometry>
        </mxCell>
        <mxCell id="wxVBCRWslOwFN35KKLDh-30" value="&amp;lt;&amp;lt;extend&amp;gt;&amp;gt;" style="edgeLabel;resizable=0;html=1;;align=center;verticalAlign=middle;" connectable="0" vertex="1" parent="wxVBCRWslOwFN35KKLDh-29">
          <mxGeometry relative="1" as="geometry" />
        </mxCell>
        <mxCell id="wxVBCRWslOwFN35KKLDh-19" value="" style="group" connectable="0" vertex="1" parent="HabPrTJprjeO0nrYq_Kb-3">
          <mxGeometry x="150" y="180" width="120" height="80" as="geometry" />
        </mxCell>
        <mxCell id="wxVBCRWslOwFN35KKLDh-7" value="" style="ellipse;whiteSpace=wrap;html=1;" vertex="1" parent="wxVBCRWslOwFN35KKLDh-19">
          <mxGeometry width="120" height="80" as="geometry" />
        </mxCell>
        <mxCell id="wxVBCRWslOwFN35KKLDh-10" value="Track claim status" style="text;html=1;align=center;verticalAlign=middle;whiteSpace=wrap;rounded=0;" vertex="1" parent="wxVBCRWslOwFN35KKLDh-19">
          <mxGeometry x="25" y="25" width="70" height="30" as="geometry" />
        </mxCell>
        <mxCell id="wxVBCRWslOwFN35KKLDh-17" value="" style="group" connectable="0" vertex="1" parent="HabPrTJprjeO0nrYq_Kb-3">
          <mxGeometry x="190" y="510" width="120" height="80" as="geometry" />
        </mxCell>
        <mxCell id="wxVBCRWslOwFN35KKLDh-12" value="" style="ellipse;whiteSpace=wrap;html=1;" vertex="1" parent="wxVBCRWslOwFN35KKLDh-17">
          <mxGeometry width="120" height="80" as="geometry" />
        </mxCell>
        <mxCell id="wxVBCRWslOwFN35KKLDh-13" value="Perform repair" style="text;html=1;align=center;verticalAlign=middle;whiteSpace=wrap;rounded=0;" vertex="1" parent="wxVBCRWslOwFN35KKLDh-17">
          <mxGeometry x="30" y="25" width="60" height="30" as="geometry" />
        </mxCell>
        <mxCell id="wxVBCRWslOwFN35KKLDh-16" value="" style="group" connectable="0" vertex="1" parent="HabPrTJprjeO0nrYq_Kb-3">
          <mxGeometry x="200" y="620" width="120" height="80" as="geometry" />
        </mxCell>
        <mxCell id="wxVBCRWslOwFN35KKLDh-14" value="" style="ellipse;whiteSpace=wrap;html=1;" vertex="1" parent="wxVBCRWslOwFN35KKLDh-16">
          <mxGeometry width="120" height="80" as="geometry" />
        </mxCell>
        <mxCell id="wxVBCRWslOwFN35KKLDh-15" value="Assess Damage" style="text;html=1;align=center;verticalAlign=middle;whiteSpace=wrap;rounded=0;" vertex="1" parent="wxVBCRWslOwFN35KKLDh-16">
          <mxGeometry x="30" y="25" width="60" height="30" as="geometry" />
        </mxCell>
        <mxCell id="HabPrTJprjeO0nrYq_Kb-14" value="Customer" style="shape=umlActor;verticalLabelPosition=bottom;verticalAlign=top;html=1;outlineConnect=0;" vertex="1" parent="1">
          <mxGeometry x="750" y="90" width="30" height="60" as="geometry" />
        </mxCell>
        <mxCell id="HabPrTJprjeO0nrYq_Kb-15" value="" style="endArrow=none;html=1;rounded=0;exitX=1;exitY=0.5;exitDx=0;exitDy=0;entryX=0.5;entryY=0.5;entryDx=0;entryDy=0;entryPerimeter=0;" edge="1" parent="1" source="HabPrTJprjeO0nrYq_Kb-16" target="HabPrTJprjeO0nrYq_Kb-14">
          <mxGeometry width="50" height="50" relative="1" as="geometry">
            <mxPoint x="680" y="270" as="sourcePoint" />
            <mxPoint x="775" y="200" as="targetPoint" />
          </mxGeometry>
        </mxCell>
        <mxCell id="wxVBCRWslOwFN35KKLDh-1" value="Repair Shop" style="shape=umlActor;verticalLabelPosition=bottom;verticalAlign=top;html=1;outlineConnect=0;" vertex="1" parent="1">
          <mxGeometry x="750" y="300" width="30" height="60" as="geometry" />
        </mxCell>
        <mxCell id="wxVBCRWslOwFN35KKLDh-2" value="Surveyor" style="shape=umlActor;verticalLabelPosition=bottom;verticalAlign=top;html=1;outlineConnect=0;" vertex="1" parent="1">
          <mxGeometry x="750" y="470" width="30" height="60" as="geometry" />
        </mxCell>
        <mxCell id="wxVBCRWslOwFN35KKLDh-5" value="Driver" style="shape=umlActor;verticalLabelPosition=bottom;verticalAlign=top;html=1;outlineConnect=0;" vertex="1" parent="1">
          <mxGeometry x="40" y="290" width="30" height="60" as="geometry" />
        </mxCell>
        <mxCell id="wxVBCRWslOwFN35KKLDh-24" value="" style="endArrow=none;html=1;rounded=0;exitX=1;exitY=0.5;exitDx=0;exitDy=0;entryX=0.5;entryY=0.5;entryDx=0;entryDy=0;entryPerimeter=0;" edge="1" parent="1" source="wxVBCRWslOwFN35KKLDh-8" target="HabPrTJprjeO0nrYq_Kb-14">
          <mxGeometry width="50" height="50" relative="1" as="geometry">
            <mxPoint x="810" y="160" as="sourcePoint" />
            <mxPoint x="945" y="50" as="targetPoint" />
          </mxGeometry>
        </mxCell>
        <mxCell id="wxVBCRWslOwFN35KKLDh-34" value="" style="endArrow=none;html=1;rounded=0;exitX=0.5;exitY=0.5;exitDx=0;exitDy=0;entryX=0.1;entryY=0.838;entryDx=0;entryDy=0;entryPerimeter=0;exitPerimeter=0;" edge="1" parent="1" source="wxVBCRWslOwFN35KKLDh-5" target="HabPrTJprjeO0nrYq_Kb-9">
          <mxGeometry width="50" height="50" relative="1" as="geometry">
            <mxPoint x="60" y="330" as="sourcePoint" />
            <mxPoint x="285" y="130" as="targetPoint" />
          </mxGeometry>
        </mxCell>
        <mxCell id="wxVBCRWslOwFN35KKLDh-35" value="" style="endArrow=none;html=1;rounded=0;entryX=0;entryY=1;entryDx=0;entryDy=0;exitX=0.5;exitY=0.5;exitDx=0;exitDy=0;exitPerimeter=0;" edge="1" parent="1" source="wxVBCRWslOwFN35KKLDh-5" target="wxVBCRWslOwFN35KKLDh-8">
          <mxGeometry width="50" height="50" relative="1" as="geometry">
            <mxPoint x="200" y="360" as="sourcePoint" />
            <mxPoint x="425" y="160" as="targetPoint" />
          </mxGeometry>
        </mxCell>
        <mxCell id="wxVBCRWslOwFN35KKLDh-36" value="" style="endArrow=none;html=1;rounded=0;exitX=0.5;exitY=0.5;exitDx=0;exitDy=0;entryX=0;entryY=0.5;entryDx=0;entryDy=0;exitPerimeter=0;" edge="1" parent="1" source="wxVBCRWslOwFN35KKLDh-5" target="wxVBCRWslOwFN35KKLDh-6">
          <mxGeometry width="50" height="50" relative="1" as="geometry">
            <mxPoint x="90" y="380" as="sourcePoint" />
            <mxPoint x="315" y="180" as="targetPoint" />
          </mxGeometry>
        </mxCell>
        <mxCell id="wxVBCRWslOwFN35KKLDh-37" value="" style="endArrow=none;html=1;rounded=0;exitX=1;exitY=0.5;exitDx=0;exitDy=0;entryX=0.5;entryY=0.5;entryDx=0;entryDy=0;entryPerimeter=0;" edge="1" parent="1" source="wxVBCRWslOwFN35KKLDh-12" target="wxVBCRWslOwFN35KKLDh-1">
          <mxGeometry width="50" height="50" relative="1" as="geometry">
            <mxPoint x="530" y="490" as="sourcePoint" />
            <mxPoint x="755" y="290" as="targetPoint" />
          </mxGeometry>
        </mxCell>
        <mxCell id="wxVBCRWslOwFN35KKLDh-38" value="" style="endArrow=none;html=1;rounded=0;exitX=1;exitY=0.5;exitDx=0;exitDy=0;entryX=0.5;entryY=0.5;entryDx=0;entryDy=0;entryPerimeter=0;" edge="1" parent="1" source="wxVBCRWslOwFN35KKLDh-14" target="wxVBCRWslOwFN35KKLDh-2">
          <mxGeometry width="50" height="50" relative="1" as="geometry">
            <mxPoint x="560" y="550" as="sourcePoint" />
            <mxPoint x="785" y="350" as="targetPoint" />
          </mxGeometry>
        </mxCell>
      </root>
    </mxGraphModel>
  </diagram>
</mxfile>
